<svg width="188" height="55" viewBox="0 0 188 55" fill="none" xmlns="http://www.w3.org/2000/svg">
<path fill-rule="evenodd" clip-rule="evenodd" d="M48.4491 27.7467C48.0871 27.5204 47.6867 27.3393 47.241 27.1062L47.793 26.7123C50.1527 24.999 50.3201 20.934 47.3179 19.336C46.9338 19.136 46.5353 18.965 46.1256 18.8245C45.0027 18.4683 43.8282 18.3023 42.6506 18.3333C39.8475 18.3152 37.0444 18.3333 34.239 18.3333C34.0648 18.3333 33.8884 18.3537 33.7255 18.3628C33.6146 19.1029 33.6485 36.2434 33.7639 36.6599H34.2368C37.2209 36.6599 40.2049 36.6599 43.1913 36.6599C43.9145 36.6565 44.6368 36.6089 45.3541 36.5173C46.4553 36.4033 47.5172 36.0453 48.4627 35.4693C48.9709 35.1689 49.4065 34.76 49.7385 34.2717C50.0705 33.7834 50.2907 33.2279 50.3834 32.6447C50.4573 32.1785 50.4801 31.7057 50.4513 31.2346C50.4313 30.533 50.238 29.8473 49.8887 29.2387C49.5393 28.6301 49.0447 28.1175 48.4491 27.7467ZM37.9041 21.5768C38.025 21.5513 38.1474 21.5339 38.2706 21.5247C39.662 21.5247 41.0556 21.4953 42.4447 21.5405C43.0025 21.5644 43.5534 21.6736 44.0782 21.8642C44.8677 22.1426 45.2704 22.7537 45.2885 23.6093C45.3204 23.9994 45.2282 24.3897 45.025 24.7243C44.8219 25.0588 44.5182 25.3206 44.1573 25.472C43.5941 25.7234 42.9821 25.8464 42.3655 25.8319C40.9923 25.85 39.619 25.8319 38.2457 25.8319C38.1327 25.8222 38.0208 25.8033 37.9109 25.7753L37.9041 21.5768ZM46.0894 32.02C46.0026 32.2907 45.8502 32.5358 45.6457 32.7332C45.4412 32.9307 45.191 33.0744 44.9175 33.1516C44.3507 33.3328 43.7629 33.44 43.1687 33.4708C41.49 33.5115 39.809 33.4866 38.1281 33.4866C38.076 33.4806 38.0245 33.47 37.9742 33.4549C37.8543 33.0747 37.8113 29.9761 37.9199 28.9667C38.1054 28.9667 38.2638 28.9372 38.4222 28.9372C39.9402 28.9372 41.4583 28.9078 42.9764 28.9372C43.5901 28.9542 44.1988 29.0532 44.7863 29.2315C46.1754 29.6502 46.4424 30.9879 46.0894 32.02Z" fill="white"/>
<path fill-rule="evenodd" clip-rule="evenodd" d="M82.7718 29.0187H87.8056C88.3667 29.0187 88.9368 29.0187 89.4888 29.0187C90.0408 29.0187 90.5951 29.0368 91.1562 29.0029V25.7391C90.93 25.7391 90.7173 25.7119 90.5046 25.7119H83.3374C83.1292 25.7119 82.9211 25.6938 82.7016 25.6848V21.7397H88.4843C89.1178 21.7397 89.7513 21.7397 90.3847 21.7397C91.0182 21.7397 91.6358 21.7691 92.2806 21.7125C92.2806 20.5582 92.3032 19.465 92.2806 18.356H78.5208V36.5942C79.2221 36.7006 92.1901 36.6712 92.6019 36.5648V33.2467H82.7401C82.6202 32.5926 82.6428 29.4465 82.7718 29.0187Z" fill="white"/>
<path fill-rule="evenodd" clip-rule="evenodd" d="M60.2813 18.4058C60.1908 19.121 60.2203 21.364 60.3379 21.7873C61.2813 21.7873 62.2383 21.7873 63.1953 21.7873C64.1523 21.7873 65.1002 21.7873 66.1025 21.7873V32.3934C66.1025 33.0996 66.1025 33.8058 66.1025 34.5119C66.1025 35.2181 66.1025 35.9084 66.116 36.5942C66.978 36.6938 69.892 36.6621 70.3286 36.5445V21.7873H73.238C74.2063 21.7873 75.1769 21.8008 76.1678 21.7759V18.4103C75.695 18.2881 60.7202 18.2881 60.2813 18.4058Z" fill="white"/>
<path d="M57.906 18.3582H53.7432V36.6214H57.906V18.3582Z" fill="white"/>
<path fill-rule="evenodd" clip-rule="evenodd" d="M155.621 23.0344C155.311 22.98 155.023 23.0072 154.745 22.9755C154.27 22.9167 153.933 23.1091 153.594 23.4282C151.026 25.7957 148.442 28.1451 145.865 30.5012C145.734 30.6189 145.598 30.7276 145.465 30.8475L145.347 30.8068V22.6677C145.347 21.7623 145.347 20.857 145.347 19.9516C145.347 19.0463 145.363 18.1568 145.334 17.2628H144.098C143.981 17.9418 144.012 36.2027 144.13 36.6123H145.322C145.322 36.4018 145.345 36.2253 145.345 36.0465C145.345 35.0325 145.345 34.0095 145.345 33.0068C145.335 32.8821 145.354 32.7568 145.402 32.6411C145.449 32.5254 145.524 32.4227 145.619 32.3414C146.619 31.4519 147.603 30.5442 148.594 29.6434C148.684 29.5597 148.786 29.4895 148.915 29.3899C149.064 29.571 149.205 29.7317 149.336 29.8992C151.037 32.0373 152.739 34.1747 154.442 36.3113C154.539 36.4358 154.668 36.6123 154.788 36.6214C155.283 36.6866 155.785 36.6721 156.275 36.5784C154.123 33.8623 152.014 31.2097 149.879 28.5163C151.806 26.6784 153.745 24.8971 155.621 23.0344Z" fill="white"/>
<path fill-rule="evenodd" clip-rule="evenodd" d="M108.642 26.8029C108.203 24.9514 107.104 23.684 105.249 23.143C104.271 22.8663 103.245 22.8015 102.24 22.9529C100.563 23.1792 99.1855 23.9103 98.2263 25.3453C98.1366 25.4549 98.0391 25.5578 97.9344 25.6531C97.9344 22.7877 97.9344 20.0286 97.9344 17.2605H96.6765V36.6191H97.9344V36.0035C97.9344 33.9031 97.9344 31.8027 97.9344 29.7045C97.9298 29.216 97.9638 28.7278 98.0362 28.2447C98.3348 26.4136 99.2715 25.0578 101.059 24.3969C102.102 24.0139 103.233 23.9355 104.319 24.1706C105.875 24.4942 106.912 25.42 107.307 26.9704C107.458 27.5838 107.533 28.213 107.534 28.8444C107.561 31.2142 107.534 33.5862 107.545 35.956C107.545 36.1687 107.565 36.3792 107.574 36.6191H108.821C108.835 36.4403 108.853 36.2819 108.853 36.1235C108.853 33.5907 108.866 31.0558 108.853 28.523C108.845 27.9437 108.774 27.367 108.642 26.8029Z" fill="white"/>
<path fill-rule="evenodd" clip-rule="evenodd" d="M123.979 26.5494C123.617 24.6934 122.511 23.5301 120.674 23.0819C120.302 22.9925 119.924 22.9349 119.542 22.9099C117.432 22.765 115.488 23.2426 113.764 24.5078C113.635 24.6114 113.511 24.7217 113.393 24.8383L114.038 25.7436C114.169 25.644 114.253 25.5761 114.339 25.5173C115.12 24.9124 116.019 24.4771 116.977 24.239C117.936 24.0009 118.933 23.9652 119.907 24.1344C121.438 24.3811 122.456 25.3792 122.694 26.9093C122.8 27.5883 122.793 28.2673 122.843 29.0482H122.142C120.769 29.0482 119.393 29.0255 118.018 29.0482C117.333 29.058 116.651 29.1338 115.981 29.2745C114.907 29.5008 113.988 30.0282 113.436 31.0445C112.978 31.8996 112.872 32.8996 113.139 33.8321C113.406 34.7647 114.025 35.5566 114.866 36.0397C115.215 36.2277 115.583 36.3793 115.963 36.4924C116.889 36.7568 117.859 36.8277 118.814 36.7006C120.35 36.5377 121.669 35.9401 122.594 34.6387C122.664 34.5619 122.74 34.4908 122.821 34.4259C122.918 35.1932 122.778 35.8971 122.913 36.5942H124.074C124.074 36.4335 124.099 36.3091 124.099 36.1846C124.099 33.3803 124.099 30.5737 124.099 27.7694C124.097 27.3598 124.057 26.9513 123.979 26.5494ZM122.8 32.5768C122.777 32.7374 122.721 32.8915 122.635 33.0294C121.852 34.6138 120.554 35.4875 118.805 35.664C117.888 35.7835 116.956 35.6762 116.09 35.3517C115.452 35.1245 114.924 34.6634 114.614 34.0616C114.303 33.4599 114.232 32.7624 114.416 32.1105C114.483 31.7716 114.631 31.4538 114.847 31.1839C115.062 30.9141 115.34 30.7001 115.656 30.5601C116.087 30.333 116.559 30.1924 117.045 30.1459C118.936 30.0984 120.832 30.1255 122.814 30.1255C122.8 30.9584 122.809 31.7687 122.791 32.5768H122.8Z" fill="white"/>
<path fill-rule="evenodd" clip-rule="evenodd" d="M134.8 24.0597C136.476 24.0212 137.922 24.5757 139.001 25.9224C139.054 25.9774 139.111 26.0288 139.171 26.0763L140.096 25.3973C139.616 24.6437 138.943 24.0332 138.146 23.6296C136.833 22.9528 135.337 22.7148 133.879 22.9506C131.237 23.3331 129.386 24.7364 128.449 27.251C127.98 28.5248 127.875 29.9041 128.144 31.2346C128.596 33.5862 129.87 35.2928 132.099 36.2412C133.311 36.7402 134.634 36.9044 135.931 36.7165C136.69 36.6439 137.426 36.4212 138.098 36.0614C138.77 35.7016 139.364 35.2119 139.845 34.6206C139.927 34.501 140.003 34.3771 140.071 34.2494L139.166 33.5862C139.058 33.6994 138.97 33.7877 138.888 33.8805C138.464 34.3762 137.943 34.7811 137.359 35.071C136.286 35.5743 135.084 35.7324 133.918 35.5237C132.811 35.37 131.784 34.86 130.992 34.0706C129.081 32.1897 128.764 28.7019 130.314 26.3977C131.391 24.8179 132.94 24.1004 134.8 24.0597Z" fill="white"/>
<path fill-rule="evenodd" clip-rule="evenodd" d="M169.679 27.2126C169.679 26.5879 169.745 26.6671 169.163 26.4317L158.802 22.2648C158.654 22.206 158.501 22.1607 158.313 22.0951V23.7134C161.465 24.9582 164.607 26.1978 167.738 27.4321C167.738 27.4706 167.749 27.5091 167.754 27.5475C164.616 28.8082 161.46 30.0214 158.283 31.2957C158.283 31.6895 158.283 32.0675 158.283 32.4455C158.283 32.5654 158.308 32.6877 158.333 32.8981L169.67 28.3714C169.679 27.9346 169.679 27.5724 169.679 27.2126Z" fill="white"/>
<path fill-rule="evenodd" clip-rule="evenodd" d="M20.0788 27.4842L29.6374 23.7156V22.0679L18.3254 26.6173V28.3737L29.6374 32.9004V31.2798L24.8864 29.4035C23.3253 28.7811 21.7439 28.1903 20.0788 27.4842Z" fill="white"/>
</svg>
