<svg width="779" height="384" viewBox="0 0 779 384" fill="none" xmlns="http://www.w3.org/2000/svg">
<path fill-rule="evenodd" clip-rule="evenodd" d="M778.361 98.889C777.04 96.049 774.413 96.049 771.74 96.0337C737.821 95.8648 703.918 95.6038 669.999 95.435C616.058 95.1791 562.113 94.9489 508.162 94.7442C506.961 94.8001 505.761 94.605 504.64 94.1716C503.518 93.7381 502.499 93.0757 501.648 92.2266C482.036 73.4676 462.353 54.7699 442.597 36.1337C431.65 25.7359 420.692 15.338 409.723 4.94024C408.982 4.13301 408.083 3.4863 407.081 3.04008C406.08 2.59385 404.997 2.35759 403.901 2.3459C389.645 2.3459 375.405 2.03887 361.149 1.94676C332.269 1.7779 303.389 1.68579 274.524 1.50158C272.987 1.50158 271.451 1.50159 269.915 1.37878C252.633 1.37878 232.294 1.19456 227.731 0.918243H225.98C224.567 1.85466 223.169 2.83713 221.725 3.74284C168.235 37.7711 114.735 71.7892 61.2245 105.797L60.1492 106.549C57.2612 108.468 54.3731 110.341 51.4697 112.229L46.7383 115.299C46.0551 116.847 46.011 118.601 46.6154 120.181C46.8317 120.693 47.1329 121.166 47.5064 121.578H54.9415C56.0015 121.578 65.6948 121.578 70.9486 121.578C98.4463 121.148 125.939 120.739 153.426 120.35C154.322 120.389 155.215 120.481 156.099 120.626L156.422 121.348C155.746 121.839 155.009 122.299 154.379 122.883C117.285 154.987 80.1605 187.153 43.0054 219.38L41.546 220.761C38.2279 223.832 34.8482 226.902 31.484 229.972L28.5192 232.628C19.3021 255.777 10.0849 278.911 0.867845 302.076C0.220523 303.911 -0.0256534 305.864 0.14586 307.802C0.216312 308.859 0.673239 309.853 1.42962 310.594C2.18599 311.336 3.18896 311.774 4.24747 311.824C5.10663 311.886 5.96908 311.886 6.82825 311.824C23.0401 311.558 39.252 311.282 55.4638 310.995C65.9099 310.811 76.3508 310.591 86.7866 310.335C90.3813 310.335 92.363 308.385 92.3476 305.331C92.3322 302.276 90.2123 300.418 86.7559 300.265C86.0185 300.265 85.2197 300.265 84.5438 300.265L15.9993 301.585C14.8318 301.585 13.6489 301.585 12.082 301.585C12.6811 299.866 13.0805 298.591 13.6182 297.363C21.0738 278.686 28.5192 259.994 35.9543 241.286C36.8845 238.905 38.3947 236.795 40.3478 235.145C84.2519 197.075 128.13 158.978 171.983 120.856L174.195 118.907C175.003 118.225 175.572 117.304 175.821 116.277C176.069 115.251 175.984 114.171 175.578 113.196C175.24 112.195 174.574 111.336 173.688 110.759C172.801 110.183 171.746 109.922 170.693 110.019C169.157 110.019 167.498 110.019 165.9 110.019C155.823 110.172 145.745 110.356 135.683 110.494L85.189 111.231C81.0566 111.231 76.9243 111.231 71.8549 111.231C73.6062 110.003 74.62 109.22 75.7107 108.529C125.749 76.7015 175.788 44.8633 225.827 13.0149C227.855 11.6586 230.253 10.9616 232.693 11.0193C260.212 11.3058 287.735 11.5463 315.263 11.7408C343.509 11.9864 371.764 12.2218 400.03 12.4469C400.934 12.3979 401.839 12.5363 402.688 12.8533C403.537 13.1703 404.31 13.6591 404.961 14.2891C433.083 41.0511 461.247 67.7825 489.451 94.4832C490.048 95.1435 490.602 95.8408 491.11 96.571C490.05 96.6477 489.451 96.7245 488.852 96.7245C466.608 96.7245 444.303 96.7245 422.12 96.7245C421.215 96.7241 420.32 96.5325 419.494 96.1621C418.668 95.7917 417.929 95.251 417.327 94.5753C400.614 78.4567 383.823 62.338 367.171 46.25C366.281 45.3444 365.208 44.6379 364.025 44.1775C362.841 43.717 361.573 43.513 360.304 43.579C336.478 43.579 312.682 43.579 288.795 43.579H284.616C282.005 32.4955 273.663 28.7191 266.72 29.2564C262.888 29.4972 259.257 31.059 256.449 33.6754C253.64 36.2918 251.826 39.8007 251.317 43.604C250.808 47.4073 251.634 51.2693 253.656 54.5316C255.678 57.7939 258.769 60.2545 262.403 61.4937C266.014 62.8144 269.976 62.8144 273.587 61.4937C279.24 59.4673 282.45 55.169 284.34 49.8269C285.369 49.8269 286.106 49.658 286.844 49.658C310.931 49.658 334.998 49.658 359.044 49.658C359.954 49.6368 360.858 49.8077 361.697 50.1595C362.536 50.5113 363.292 51.0362 363.914 51.6997C370.781 58.3928 377.74 64.9937 384.607 71.6561C385.259 72.3495 385.875 73.0771 386.45 73.836H311.223C307.29 66.7284 302.958 64.088 297.321 65.2701C294.848 65.7414 292.599 67.0087 290.915 68.8783C289.232 70.7479 288.207 73.1169 287.998 75.6233C287.789 78.1296 288.407 80.6355 289.758 82.7577C291.108 84.88 293.117 86.5019 295.477 87.3756C301.223 89.5095 305.693 87.4985 311.192 80.1913H315.463C339.018 80.1913 362.614 80.1913 386.25 80.1913H393.317C399.815 85.7024 408.479 94.4525 409.57 96.7859H405.806C397.818 96.7859 389.83 96.7859 381.841 96.7859C380.698 96.7136 379.552 96.898 378.489 97.3257C377.426 97.7534 376.471 98.4134 375.697 99.2574C369.552 105.643 363.3 111.876 357.094 118.17C344.917 130.451 332.755 142.788 320.609 155.181C319.972 155.935 319.156 156.517 318.235 156.874C317.315 157.231 316.319 157.351 315.34 157.223C314.603 157.177 313.865 157.177 313.128 157.223L234.629 159.741L224.152 160.155C223.446 160.155 217.501 160.432 213.399 160.524C212.808 160.992 212.253 161.506 211.74 162.059C199.246 174.688 186.669 187.291 174.011 199.869C172.997 200.882 171.953 201.849 170.939 202.739C161.722 198.134 153.626 199.347 148.28 205.917C145.851 208.865 144.513 212.56 144.492 216.379C144.47 220.198 145.766 223.908 148.161 226.883C150.557 229.859 153.905 231.919 157.642 232.717C161.38 233.514 165.278 233 168.681 231.262C172.006 229.588 174.661 226.832 176.208 223.448C178.804 217.906 177.928 212.487 175.378 207.437C175.544 207.111 175.734 206.797 175.947 206.5C188.789 193.636 201.621 180.762 214.443 167.877C214.917 167.406 215.485 167.04 216.109 166.802C216.734 166.564 217.401 166.459 218.069 166.495C230.358 166.111 242.648 165.666 254.937 165.252C255.89 165.313 256.839 165.426 257.779 165.59L208.422 215.158C207.53 214.737 206.618 214.363 205.687 214.038C203.199 213.26 200.523 213.335 198.083 214.25C195.642 215.165 193.577 216.868 192.215 219.088C191.234 220.728 190.676 222.586 190.591 224.494C190.506 226.403 190.896 228.303 191.727 230.024C192.557 231.744 193.802 233.232 195.35 234.354C196.897 235.476 198.699 236.196 200.594 236.45C202.489 236.705 204.417 236.485 206.206 235.811C207.995 235.137 209.589 234.03 210.844 232.59C212.1 231.149 212.978 229.419 213.399 227.556C213.821 225.692 213.773 223.753 213.261 221.913C212.984 220.884 212.677 219.871 212.462 219.134C213.998 217.783 215.365 216.724 216.579 215.527C232.647 199.469 248.706 183.392 264.754 167.293C265.311 166.59 266.008 166.01 266.801 165.589C267.595 165.169 268.467 164.918 269.362 164.853C281.897 164.546 294.417 164.039 306.937 163.609C308.228 163.609 309.533 163.609 311.546 163.609C310.271 165.144 309.549 166.004 308.734 166.833L265.721 210.369L179.772 297.44C179.065 298.116 178.441 298.873 177.913 299.697C177.487 300.453 177.331 301.331 177.47 302.188C177.61 303.044 178.037 303.828 178.681 304.41C179.296 305.019 180.098 305.405 180.959 305.505C181.82 305.605 182.689 305.414 183.428 304.962C184.234 304.4 184.971 303.746 185.625 303.013C191.862 296.729 198.083 290.445 204.289 284.161C223.358 264.84 242.433 245.523 261.512 226.211C262.234 225.49 263.048 224.875 264.262 223.816C264.354 225.674 264.462 226.886 264.462 228.053C264.462 249.913 264.462 271.773 264.538 293.633C264.594 294.837 264.372 296.037 263.89 297.142C263.408 298.246 262.678 299.225 261.758 300.004C244.461 316.215 227.209 332.477 210.004 348.79C209.128 349.619 208.191 350.325 207.193 351.246C206.117 350.279 205.257 349.45 204.32 348.682C202.194 346.927 199.664 345.727 196.958 345.193C194.253 344.658 191.456 344.804 188.821 345.619C186.186 346.433 183.796 347.89 181.865 349.858C179.934 351.826 178.523 354.243 177.76 356.892C176.997 359.54 176.906 362.337 177.494 365.03C178.082 367.722 179.332 370.226 181.13 372.316C182.928 374.406 185.219 376.016 187.795 377C190.371 377.985 193.152 378.314 195.886 377.957C199.957 377.461 203.69 375.445 206.334 372.312C208.979 369.18 210.339 365.164 210.142 361.07C210.036 359.763 210.251 358.449 210.767 357.242C211.284 356.036 212.087 354.974 213.107 354.147C231.403 337.031 249.576 319.761 267.841 302.613C268.765 301.83 269.497 300.846 269.982 299.737C270.466 298.627 270.69 297.422 270.637 296.212C270.545 270.913 270.637 245.553 270.514 220.316C270.466 219.238 270.657 218.163 271.074 217.168C271.491 216.172 272.124 215.282 272.926 214.56C282.297 205.165 291.575 195.693 300.9 186.252C326.872 159.961 352.838 133.644 378.8 107.301C379.611 106.414 380.609 105.717 381.722 105.261C382.835 104.805 384.035 104.6 385.236 104.661C429.97 104.733 474.704 104.733 519.437 104.661C531.85 104.661 544.247 104.784 556.659 104.876C557.673 104.876 558.672 105.06 560.238 105.229C558.979 106.672 558.226 107.608 557.412 108.499C542.204 124.873 527.016 141.279 511.849 157.714C511.067 158.631 510.083 159.354 508.974 159.826C507.865 160.297 506.661 160.505 505.458 160.432C482.231 160.339 459.004 160.432 435.777 160.432H432.09C427.389 148.841 421.444 144.635 412.12 146.048C409.836 146.449 407.661 147.324 405.736 148.615C403.81 149.905 402.176 151.584 400.937 153.544C399.699 155.503 398.884 157.699 398.546 159.991C398.207 162.284 398.351 164.622 398.969 166.855C399.588 169.088 400.667 171.168 402.137 172.96C403.606 174.752 405.435 176.217 407.505 177.262C409.575 178.306 411.84 178.907 414.156 179.025C416.472 179.143 418.787 178.776 420.953 177.947C426.421 175.921 429.494 171.638 431.476 166.511C432.336 166.511 432.935 166.372 433.549 166.372H490.972L494.459 166.265C498.975 166.265 503.507 166.265 508.039 166.265H512.647C513.163 165.782 513.65 165.269 514.107 164.73C514.568 164.162 514.982 163.548 515.489 163.011C532.777 144.364 550.054 125.712 567.32 107.056C567.868 106.405 568.564 105.895 569.35 105.57C570.136 105.244 570.989 105.111 571.837 105.183C575.155 105.306 578.473 105.29 581.791 105.306L669.169 105.536C675.683 105.536 682.196 105.536 688.709 105.659C690.246 105.659 691.782 105.29 693.226 106.426C693.027 106.804 692.796 107.163 692.535 107.501C684.516 115.637 676.466 123.742 668.478 131.909C667.95 132.416 667.318 132.801 666.625 133.037C665.932 133.273 665.196 133.354 664.469 133.275H637.831C631.809 122.115 625.311 118.354 616.632 120.81C612.943 121.809 609.712 124.048 607.482 127.149C605.252 130.251 604.16 134.025 604.389 137.837C604.618 141.649 606.154 145.266 608.74 148.078C611.325 150.891 614.801 152.727 618.583 153.278C627.462 154.46 634.037 149.793 637.708 139.6C638.156 139.477 638.613 139.395 639.075 139.354C646.756 139.354 654.314 139.354 661.934 139.354H662.041H669.722C670.306 138.817 670.859 138.249 671.427 137.681C681.09 127.887 690.783 118.124 700.369 108.253C701.117 107.372 702.065 106.682 703.134 106.242C704.203 105.801 705.362 105.622 706.514 105.72C709.448 105.935 712.413 105.92 715.347 105.935L759.22 106.135C760.219 106.135 761.202 106.304 762.615 106.442C761.74 107.516 761.294 108.1 760.818 108.637L669.261 211.658C668.221 212.861 666.926 213.819 665.47 214.461C664.014 215.103 662.434 215.415 660.843 215.373H641.672C641.672 215.557 607.63 215.726 603.636 215.373H591.853C591.3 215.373 590.778 215.373 590.317 215.373C586.092 215.373 577.474 215.542 576.491 215.373H574.955C570.162 215.373 565.369 215.373 560.576 215.45C544.477 215.45 528.383 215.486 512.294 215.557C494.843 215.557 477.392 215.757 459.941 215.818H459.741C459.019 215.818 455.271 215.818 452.06 215.818H448.466C448.189 216.049 447.928 216.294 447.621 216.586C436.642 226.728 425.659 236.875 414.67 247.027C414.67 247.027 412.258 249.299 411.981 249.56C409.8 251.571 407.588 253.551 405.376 255.547L402.902 257.972C402.702 258.739 402.686 259.543 402.857 260.317C403.028 261.091 403.381 261.813 403.886 262.424C404.541 263.156 405.244 263.843 405.99 264.481L448.343 303.366C472.236 325.308 496.118 347.244 519.99 369.176C520.728 369.851 521.342 370.711 522.372 371.816C520.835 371.939 519.99 372.047 519.161 372.062C482.292 372.615 445.424 373.177 408.556 373.75C407.295 373.834 406.032 373.644 404.852 373.193C403.672 372.743 402.603 372.043 401.72 371.141C379.527 349.721 357.273 328.383 334.957 307.127C334.196 306.322 333.369 305.582 332.484 304.916C331.48 304.187 330.237 303.865 329.005 304.016C327.774 304.167 326.645 304.78 325.848 305.73C325.076 306.619 324.639 307.749 324.611 308.926C324.583 310.102 324.966 311.252 325.694 312.177C326.404 313.02 327.18 313.805 328.014 314.526L374.253 358.814C374.836 359.32 375.405 359.842 375.958 360.349L379.906 364.033C385.851 369.59 391.734 375.224 397.618 380.919L398.878 382.132L400.598 383.928H403.824C410.507 383.729 417.22 383.621 423.917 383.529C451.313 383.15 478.708 382.772 506.103 382.393C515.812 382.255 525.521 381.994 535.214 381.856C535.73 381.841 536.244 381.784 536.75 381.687L540.022 377.726C541.82 375.562 543.648 373.382 545.476 371.233C546.188 370.283 546.969 369.385 547.811 368.546L563.28 349.941C563.949 349.221 564.555 348.445 565.093 347.623C565.583 346.885 565.866 346.029 565.911 345.145C565.957 344.26 565.764 343.38 565.353 342.595C564.941 341.811 564.327 341.151 563.573 340.685C562.819 340.219 561.954 339.965 561.068 339.947C560.331 339.947 559.532 339.947 558.856 339.947H510.19C508.93 339.947 507.67 339.855 505.888 339.794C507.025 338.259 507.716 337.215 508.454 336.248L519.053 322.555C521.158 319.822 523.232 317.09 525.352 314.372C526.135 313.338 526.623 312.111 526.764 310.822C526.905 309.532 526.693 308.229 526.151 307.05C525.198 304.548 522.817 303.98 520.328 304.103C519.468 304.103 518.608 304.103 517.748 304.103C501.034 304.103 484.32 304.103 467.607 304.103C466.463 304.163 465.32 303.985 464.249 303.581C463.178 303.177 462.203 302.555 461.385 301.754C447.252 288.629 432.996 275.657 418.787 262.593C417.88 261.764 416.913 261.058 415.929 260.198C416.621 259.4 416.974 258.909 417.466 258.494C428.557 248.26 439.638 237.99 450.709 227.685C451.326 227.114 452.053 226.673 452.845 226.388C453.636 226.104 454.477 225.981 455.317 226.027C464.534 226.027 473.751 225.904 482.968 225.873L575.139 225.597C576.199 225.597 577.259 225.735 578.534 225.827V237.049C578.534 241.654 578.534 246.382 578.534 251.049C578.463 252.101 578.718 253.149 579.264 254.051C579.811 254.952 580.622 255.664 581.587 256.088C582.553 256.513 583.626 256.63 584.66 256.423C585.694 256.216 586.64 255.696 587.367 254.933C587.967 254.319 588.581 253.72 589.196 253.122C597.522 244.771 605.955 236.512 614.112 228.007C614.974 227.049 616.054 226.311 617.262 225.858H622.577V256.437C622.523 257.421 622.554 258.407 622.669 259.385C622.783 260.219 623.108 261.01 623.612 261.684C624.116 262.358 624.782 262.894 625.55 263.241C626.317 263.587 627.16 263.734 628 263.666C628.839 263.598 629.648 263.319 630.35 262.854C631.343 262.137 632.259 261.319 633.084 260.413L662.978 230.371C663.731 229.619 664.515 228.836 665.252 228.176C665.989 227.516 667.664 225.919 667.894 225.689C670.398 223.31 672.933 220.946 675.452 218.597C677.342 216.831 679.231 215.097 681.121 213.347L708.634 182.399C731.164 157.049 753.695 131.71 776.226 106.38C778.238 104.2 779.774 101.867 778.361 98.889ZM268.01 56.3511C265.93 56.3783 263.889 55.7881 262.145 54.6551C260.401 53.5221 259.033 51.8974 258.214 49.9867C257.395 48.076 257.162 45.9654 257.544 43.9221C257.926 41.8789 258.907 39.995 260.361 38.5091C261.816 37.0233 263.679 36.0022 265.715 35.5754C267.751 35.1486 269.867 35.3352 271.797 36.1116C273.726 36.8879 275.382 38.2191 276.554 39.9365C277.726 41.6539 278.361 43.6803 278.379 45.7588C278.412 47.1394 278.168 48.5125 277.662 49.7973C277.155 51.0822 276.396 52.2526 275.43 53.2398C274.463 54.2269 273.309 55.0108 272.035 55.5451C270.761 56.0795 269.392 56.3535 268.01 56.3511ZM299.763 82.0028C299.03 82.0256 298.299 81.8999 297.616 81.6331C296.932 81.3664 296.31 80.9642 295.786 80.4508C295.262 79.9373 294.848 79.3232 294.567 78.6454C294.287 77.9677 294.147 77.2403 294.156 76.5071C294.298 75.1811 294.926 73.9545 295.918 73.0631C296.911 72.1718 298.198 71.6787 299.533 71.6787C300.867 71.6787 302.154 72.1718 303.147 73.0631C304.14 73.9545 304.767 75.1811 304.909 76.5071C304.935 77.9119 304.412 79.2715 303.451 80.2975C302.49 81.3235 301.168 81.9351 299.763 82.0028ZM161.215 227.025C159.115 227.031 157.061 226.413 155.313 225.251C153.565 224.089 152.201 222.434 151.396 220.496C150.59 218.559 150.378 216.426 150.788 214.368C151.197 212.31 152.209 210.42 153.694 208.937C155.18 207.455 157.073 206.446 159.133 206.04C161.193 205.634 163.327 205.849 165.265 206.657C167.203 207.465 168.857 208.829 170.018 210.578C171.178 212.327 171.793 214.38 171.784 216.478C171.732 219.262 170.602 221.917 168.63 223.884C166.659 225.852 164 226.977 161.215 227.025ZM202.185 230.387C201.483 230.389 200.788 230.252 200.139 229.984C199.49 229.716 198.901 229.322 198.405 228.825C197.91 228.329 197.518 227.739 197.251 227.09C196.985 226.441 196.85 225.746 196.854 225.044C196.807 224.304 196.914 223.563 197.167 222.866C197.42 222.169 197.814 221.532 198.325 220.994C198.836 220.456 199.453 220.03 200.136 219.741C200.819 219.452 201.555 219.308 202.297 219.316C203.039 219.325 203.771 219.486 204.448 219.79C205.124 220.094 205.731 220.535 206.229 221.084C206.728 221.633 207.108 222.279 207.345 222.982C207.582 223.685 207.671 224.428 207.607 225.167C207.6 225.867 207.452 226.559 207.175 227.201C206.897 227.844 206.494 228.425 205.989 228.911C205.485 229.397 204.888 229.777 204.235 230.031C203.582 230.284 202.885 230.405 202.185 230.387ZM193.982 372.031C191.239 371.958 188.631 370.826 186.707 368.871C184.782 366.916 183.692 364.292 183.664 361.55C183.636 358.808 184.673 356.163 186.557 354.169C188.441 352.176 191.026 350.99 193.766 350.862C196.509 350.935 199.117 352.068 201.041 354.022C202.966 355.977 204.056 358.601 204.084 361.343C204.112 364.085 203.075 366.731 201.191 368.724C199.307 370.717 196.722 371.903 193.982 372.031ZM415.192 172.943C412.402 172.951 409.72 171.863 407.725 169.913C405.731 167.963 404.583 165.307 404.531 162.519C404.53 159.722 405.62 157.034 407.571 155.027C409.522 153.021 412.179 151.853 414.977 151.774C420.108 151.774 425.438 156.287 425.408 160.785C425.331 169.919 420.768 172.467 415.192 172.943ZM620.902 147.306C619.516 147.282 618.149 146.985 616.878 146.432C615.608 145.878 614.459 145.079 613.498 144.08C612.538 143.082 611.784 141.904 611.28 140.613C610.777 139.323 610.533 137.945 610.564 136.561C610.616 134.492 611.279 132.486 612.469 130.793C613.66 129.1 615.325 127.798 617.255 127.049C619.185 126.3 621.293 126.138 623.315 126.584C625.337 127.031 627.181 128.065 628.616 129.556C630.051 131.047 631.012 132.93 631.379 134.966C631.746 137.002 631.501 139.101 630.677 140.999C629.852 142.897 628.484 144.508 626.744 145.631C625.005 146.753 622.972 147.336 620.902 147.306ZM515.121 350.785H549.424L534.523 368.654L515.044 350.801L515.121 350.785ZM512.571 314.311L497.132 334.267L476.455 314.311H512.571ZM589.011 237.694V225.72H601.301L589.011 237.694ZM633.023 245.707V225.658H652.471C651.35 227.961 638.277 241.501 633.023 245.707Z" fill="white"/>
</svg>
