<svg id="Layer_1" data-name="Layer 1" xmlns="http://www.w3.org/2000/svg" viewBox="0 0 830.98 534.31"><defs><style>.cls-1,.cls-2{fill:#fff;}.cls-1{fill-rule:evenodd;}</style></defs><title>BITEhack_logo</title><path class="cls-1" d="M214.15,413.91c-1.6-1-3.37-1.8-5.34-2.84l2.44-1.73c10.43-7.57,11.17-25.54-2.1-32.59a38.34,38.34,0,0,0-5.27-2.26,46.76,46.76,0,0,0-15.36-2.2c-12.39-.07-24.78,0-37.18,0-.77,0-1.55.09-2.27.14-.49,3.27-.34,79,.17,80.84h2.09c13.19,0,26.38,0,39.58,0a78.42,78.42,0,0,0,9.56-.62A32.94,32.94,0,0,0,214.21,448a17.74,17.74,0,0,0,8.49-12.49,28.57,28.57,0,0,0,.31-6.2A18.75,18.75,0,0,0,214.15,413.91Zm-46.61-27.26a12.37,12.37,0,0,1,1.62-.23c6.15,0,12.31-.13,18.45.07a24.48,24.48,0,0,1,7.22,1.42c3.49,1.24,5.27,3.93,5.35,7.72a8.2,8.2,0,0,1-5,8.23,18.68,18.68,0,0,1-7.92,1.59c-6.07.07-12.14,0-18.21,0a9.15,9.15,0,0,1-1.48-.25Zm36.18,46.14a7.6,7.6,0,0,1-5.18,4.95,30.17,30.17,0,0,1-7.73,1.41c-7.42.19-14.85.08-22.28.07a3.16,3.16,0,0,1-.68-.14c-.53-1.67-.72-15.36-.24-19.82.82-.06,1.52-.14,2.22-.14,6.71,0,13.42-.13,20.13.05a30.88,30.88,0,0,1,8,1.3C204.1,422.35,205.28,428.23,203.72,432.79Z"/><path class="cls-1" d="M365.86,419.53h22.25c2.48,0,5,0,7.44,0s4.89.09,7.37-.06V405c-1,0-1.94-.12-2.88-.12H368.36c-.92,0-1.84-.07-2.81-.12V387.37h25.56c2.8,0,5.6,0,8.4,0s5.53.14,8.38-.11c0-5.1.1-9.94,0-14.84H347.07V453c3.1.46,60.42.34,62.24-.14V438.2H365.72C365.19,435.33,365.29,421.41,365.86,419.53Z"/><path class="cls-1" d="M266.45,372.64c-.4,3.16-.27,13.06.25,14.93h12.63c4.21,0,8.42,0,12.85,0v46.86c0,3.12,0,6.24,0,9.35s0,6.17.06,9.21c3.81.43,16.69.29,18.62-.22V387.57h12.86c4.28,0,8.57.06,12.95-.05V372.65C334.58,372.11,268.39,372.12,266.45,372.64Z"/><rect class="cls-2" x="237.55" y="372.42" width="18.4" height="80.69"/><path class="cls-1" d="M687.86,393.09c-1.37-.24-2.64-.12-3.87-.27-2.1-.25-3.59.6-5.09,2q-17,15.68-34.16,31.25c-.58.52-1.18,1-1.77,1.52l-.52-.17V391.47c0-4,0-8,0-12s.07-7.93-.06-11.87h-5.46c-.52,3-.38,83.67.14,85.49h5.27c0-.94.1-1.72.1-2.5,0-4.48,0-9,0-13.44a3.47,3.47,0,0,1,1.21-2.93c4.42-3.93,8.77-8,13.15-11.93.4-.36.85-.68,1.42-1.12.66.8,1.28,1.52,1.86,2.26q11.28,14.16,22.57,28.33c.43.54,1,1.32,1.53,1.37a20.64,20.64,0,0,0,6.57-.19l-28.27-35.62C671,409.19,679.57,401.33,687.86,393.09Z"/><path class="cls-1" d="M480.21,409.74c-1.94-8.18-6.8-13.79-15-16.17a31.43,31.43,0,0,0-13.3-.84c-7.41,1-13.5,4.23-17.74,10.57a15.06,15.06,0,0,1-1.29,1.36c0-12.66,0-24.86,0-37.08h-5.56V453.1h5.56v-2.72c0-9.27,0-18.55,0-27.82a40.81,40.81,0,0,1,.45-6.45c1.32-8.1,5.46-14.08,13.36-17a25.83,25.83,0,0,1,14.41-1c6.88,1.43,11.46,5.52,13.21,12.36a35,35,0,0,1,1,8.29c.12,10.47,0,20.95.05,31.42,0,.93.09,1.87.13,2.93H481c.06-.8.14-1.5.14-2.19,0-11.2.06-22.39,0-33.59A35.32,35.32,0,0,0,480.21,409.74Z"/><path class="cls-1" d="M548,408.61c-1.6-8.2-6.49-13.34-14.61-15.31a28.71,28.71,0,0,0-5-.77c-9.33-.63-17.92,1.47-25.54,7.06-.56.42-1,.93-1.64,1.46l2.85,4,1.33-1A31.42,31.42,0,0,1,530,398c6.77,1.09,11.27,5.49,12.32,12.26.47,3,.44,6,.66,9.45h-3.1c-6.07,0-12.15-.11-18.23,0a47.94,47.94,0,0,0-9,1c-4.75,1-8.81,3.34-11.25,7.83a16.48,16.48,0,0,0,6.32,22.07,25.66,25.66,0,0,0,4.85,2,31,31,0,0,0,12.6.93c6.79-.72,12.62-3.37,16.71-9.12a11,11,0,0,1,1-.94c.43,3.39-.19,6.51.41,9.58h5.13c0-.71.11-1.26.11-1.8,0-12.4,0-24.79,0-37.18A28.84,28.84,0,0,0,548,408.61Zm-5.21,26.64a5.12,5.12,0,0,1-.73,2c-3.46,7.06-9.2,10.87-16.93,11.64a24.91,24.91,0,0,1-12-1.38,11.79,11.79,0,0,1-7.4-14.32,9.53,9.53,0,0,1,5.48-6.85,17,17,0,0,1,6.14-1.83c8.36-.2,16.74-.08,25.5-.08C542.79,428.1,542.83,431.67,542.75,435.25Z"/><path class="cls-1" d="M595.83,397.61c7.41-.16,13.8,2.29,18.57,8.23a7.65,7.65,0,0,0,.75.69l4.09-3a22.12,22.12,0,0,0-8.62-7.81,30.47,30.47,0,0,0-18.86-3c-11.68,1.69-19.86,7.88-24,19a32.34,32.34,0,0,0-1.35,17.48c2,10.39,7.63,17.93,17.48,22.13a32.32,32.32,0,0,0,16.94,2.09,25.35,25.35,0,0,0,17.3-9.26,16.55,16.55,0,0,0,1-1.63l-4-2.93c-.48.5-.87.88-1.23,1.29a21.15,21.15,0,0,1-6.76,5.26,25.32,25.32,0,0,1-15.21,2A22.74,22.74,0,0,1,579,441.85c-8.45-8.31-9.85-23.72-3-33.9C580.76,401,587.61,397.8,595.83,397.61Z"/><path class="cls-1" d="M750,411.55c0-2.77.29-2.42-2.28-3.45l-45.77-18.41c-.65-.27-1.33-.47-2.16-.75v7.15l41.66,16.43c0,.17.05.33.07.5-13.87,5.57-27.82,10.93-41.86,16.56,0,1.75,0,3.41,0,5.08,0,.54.11,1.07.22,2l50.11-20C750,414.73,750,413.14,750,411.55Z"/><path class="cls-1" d="M88.75,412.75,131,396.09v-7.27l-50,20.1v7.76l50,20v-7.15l-21-8.29C103.1,418.47,96.11,415.87,88.75,412.75Z"/><path class="cls-1" d="M680.41,146c-.86-1.85-2.57-1.85-4.31-1.86-22.08-.11-44.15-.28-66.23-.39q-52.67-.25-105.35-.45a5.63,5.63,0,0,1-4.24-1.64q-19.15-18.33-38.44-36.54-10.69-10.16-21.4-20.32a5.22,5.22,0,0,0-3.79-1.69c-9.28,0-18.55-.2-27.83-.26-18.8-.11-37.6-.17-56.39-.29-1,0-2,0-3-.08-11.25,0-24.49-.12-27.46-.3h-1.14c-.92.61-1.83,1.25-2.77,1.84q-52.23,33.25-104.48,66.48l-.7.49c-1.88,1.25-3.76,2.47-5.65,3.7l-3.08,2a4.18,4.18,0,0,0-.08,3.18,3.22,3.22,0,0,0,.58.91l4.84,0c.69,0,7,0,10.42,0q26.85-.42,53.69-.8a14.66,14.66,0,0,1,1.74.18l.21.47c-.44.32-.92.62-1.33,1Q238,193,201.72,224.49l-.95.9c-2.16,2-4.36,4-6.55,6l-1.93,1.73c-6,15.08-12,30.15-18,45.24a8.87,8.87,0,0,0-.47,3.73,2.81,2.81,0,0,0,2.67,2.62,11.76,11.76,0,0,0,1.68,0q15.83-.26,31.66-.54,10.2-.18,20.39-.43c2.34,0,3.63-1.27,3.62-3.26s-1.39-3.2-3.64-3.3c-.48,0-1,0-1.44,0l-44.62.86c-.76,0-1.53,0-2.55,0,.39-1.12.65-1.95,1-2.75q7.28-18.25,14.54-36.53a10,10,0,0,1,2.86-4q42.87-37.2,85.69-74.45l1.44-1.27a3.24,3.24,0,0,0,.9-3.72,3.06,3.06,0,0,0-3.18-2.07c-1,0-2.08,0-3.12,0-6.56.1-13.12.22-19.67.31l-32.87.48c-2.69,0-5.38,0-8.68,0,1.14-.8,1.8-1.31,2.51-1.76q48.86-31.1,97.72-62.22a7.71,7.71,0,0,1,4.47-1.3q26.87.28,53.75.47,27.58.24,55.18.46a4.28,4.28,0,0,1,3.21,1.2q27.46,26.15,55,52.24a13.73,13.73,0,0,1,1.08,1.36c-.69.05-1.08.1-1.47.1-14.48,0-29,0-43.44,0a4.18,4.18,0,0,1-3.12-1.4c-10.88-10.5-21.81-21-32.65-31.48a5.84,5.84,0,0,0-4.47-1.74c-15.51,0-31,0-46.55,0H359c-1.7-7.22-7.13-9.68-11.65-9.33a10.8,10.8,0,0,0-2.81,21,10.59,10.59,0,0,0,7.28,0c3.68-1.32,5.77-4.12,7-7.6.67,0,1.15-.11,1.63-.11q23.52,0,47,0a4.21,4.21,0,0,1,3.17,1.33c4.47,4.36,9,8.66,13.47,13a17.44,17.44,0,0,1,1.2,1.42H376.32c-2.56-4.63-5.38-6.35-9.05-5.58a7.5,7.5,0,0,0-1.2,14.4c3.74,1.39,6.65.08,10.23-4.68h2.78q23,0,46.08,0h4.6c4.23,3.59,9.87,9.29,10.58,10.81h-2.45c-5.2,0-10.4,0-15.6,0a5,5,0,0,0-4,1.61c-4,4.16-8.07,8.22-12.11,12.32q-11.89,12-23.75,24.11A3.84,3.84,0,0,1,379,184a11.54,11.54,0,0,0-1.44,0l-51.1,1.64-6.82.27c-.46,0-4.33.18-7,.24a9.67,9.67,0,0,0-1.08,1Q299.36,199.49,287,211.78c-.66.66-1.34,1.29-2,1.87-6-3-11.27-2.21-14.75,2.07a10.82,10.82,0,0,0,13.28,16.51,10.66,10.66,0,0,0,4.9-5.09c1.69-3.61,1.12-7.14-.54-10.43a4.69,4.69,0,0,1,.37-.61q12.54-12.57,25.06-25.16a3.11,3.11,0,0,1,2.36-.9c8-.25,16-.54,24-.81a17.25,17.25,0,0,1,1.85.22l-32.13,32.29a18.43,18.43,0,0,0-1.78-.73,7.62,7.62,0,0,0-8.77,3.29,7.52,7.52,0,1,0,13.7,1.84c-.18-.67-.38-1.33-.52-1.81,1-.88,1.89-1.57,2.68-2.35q15.69-15.69,31.36-31.42a4.22,4.22,0,0,1,3-1.59c8.16-.2,16.31-.53,24.46-.81.84,0,1.69,0,3,0-.83,1-1.3,1.56-1.83,2.1l-28,28.36-55.95,56.72a8,8,0,0,0-1.21,1.47,2.49,2.49,0,0,0,.5,3.07,2.52,2.52,0,0,0,3.09.36,8.18,8.18,0,0,0,1.43-1.27q6.09-6.14,12.15-12.28,18.62-18.88,37.25-37.75c.47-.47,1-.87,1.79-1.56.06,1.21.13,2,.13,2.76,0,14.24,0,28.48.05,42.72a5.13,5.13,0,0,1-1.81,4.15q-16.89,15.84-33.69,31.78c-.57.54-1.18,1-1.83,1.6-.7-.63-1.26-1.17-1.87-1.67a10.82,10.82,0,1,0-5.49,19.07,10.57,10.57,0,0,0,9.28-11,5.26,5.26,0,0,1,1.93-4.51c11.91-11.15,23.74-22.4,35.63-33.57a5.17,5.17,0,0,0,1.82-4.17c-.06-16.48,0-33-.08-49.44a4.76,4.76,0,0,1,1.57-3.75c6.1-6.12,12.14-12.29,18.21-18.44q25.36-25.69,50.71-51.43a5.31,5.31,0,0,1,4.19-1.72q43.68.07,87.36,0c8.08,0,16.15.08,24.23.14.66,0,1.31.12,2.33.23-.82.94-1.31,1.55-1.84,2.13q-14.85,16-29.66,32.06a5.06,5.06,0,0,1-4.16,1.77c-15.12-.06-30.24,0-45.36,0H455c-3.06-7.55-6.93-10.29-13-9.37a10.83,10.83,0,1,0,5.75,20.78c3.56-1.32,5.56-4.11,6.85-7.45.56,0,.95-.09,1.35-.09h37.38l2.27-.07c2.94,0,5.89,0,8.84,0h3a11.92,11.92,0,0,0,.95-1c.3-.37.57-.77.9-1.12q16.88-18.22,33.74-36.45a3.46,3.46,0,0,1,2.94-1.22c2.16.08,4.32.07,6.48.08l56.88.15c4.24,0,8.48,0,12.72.08,1,0,2-.24,2.94.5a4.79,4.79,0,0,1-.45.7c-5.22,5.3-10.46,10.58-15.66,15.9a3.26,3.26,0,0,1-2.61.89H588.93c-3.92-7.27-8.15-9.72-13.8-8.12a10.82,10.82,0,0,0,1.27,21.15c5.78.77,10.06-2.27,12.45-8.91a5,5,0,0,1,.89-.16c5,0,9.92,0,14.88,0h.07l5,0c.38-.35.74-.72,1.11-1.09,6.29-6.38,12.6-12.74,18.84-19.17a4.72,4.72,0,0,1,4-1.65c1.91.14,3.84.13,5.75.14l28.56.13c.65,0,1.29.11,2.21.2-.57.7-.86,1.08-1.17,1.43l-59.6,67.11a7,7,0,0,1-5.48,2.42H591.43v0c0,.12-22.16.23-24.76,0H559c-.36,0-.7,0-1,0-2.75,0-8.36.11-9,0h-1c-3.12,0-6.24,0-9.36.05q-15.72,0-31.43.07c-11.36,0-22.72.13-34.08.17H473c-.47,0-2.91,0-5,0l-2.34,0c-.18.15-.35.31-.55.5q-10.72,9.91-21.45,19.83l0,0s-1.57,1.48-1.75,1.65c-1.42,1.31-2.86,2.6-4.3,3.9L436,249.63a3.26,3.26,0,0,0,.64,2.9,14.47,14.47,0,0,0,1.37,1.34l27.57,25.33q23.33,21.44,46.64,42.87c.48.44.88,1,1.55,1.72-1,.08-1.55.15-2.09.16q-36,.54-72,1.1a5.7,5.7,0,0,1-4.45-1.7q-21.67-20.93-43.46-41.7a12.85,12.85,0,0,0-1.61-1.44,3.19,3.19,0,0,0-4.32.53,3.3,3.3,0,0,0-.1,4.2,13.62,13.62,0,0,0,1.51,1.53l30.1,28.85c.38.33.75.67,1.11,1l2.57,2.4c3.87,3.62,7.7,7.29,11.53,11l.82.79,1.12,1.17h2.1c4.35-.13,8.72-.2,13.08-.26q26.75-.37,53.5-.74c6.32-.09,12.64-.26,18.95-.35a6.25,6.25,0,0,0,1-.11l2.13-2.58c1.17-1.41,2.36-2.83,3.55-4.23a16.11,16.11,0,0,1,1.52-1.75l10.07-12.12a11.37,11.37,0,0,0,1.18-1.51,3.22,3.22,0,0,0-2.62-5c-.48,0-1,0-1.44,0l-31.68,0c-.82,0-1.64-.06-2.8-.1.74-1,1.19-1.68,1.67-2.31l6.9-8.92c1.37-1.78,2.72-3.56,4.1-5.33a4.67,4.67,0,0,0,.52-4.77c-.62-1.63-2.17-2-3.79-1.92-.56,0-1.12,0-1.68,0-10.88,0-21.76,0-32.64,0a5.38,5.38,0,0,1-4.05-1.53c-9.2-8.55-18.48-17-27.73-25.51-.59-.54-1.22-1-1.86-1.56.45-.52.68-.84,1-1.11q10.83-10,21.64-20.07a4.09,4.09,0,0,1,3-1.08c6,0,12-.08,18-.1l60-.18c.69,0,1.38.09,2.21.15V236c0,3,0,6.08,0,9.12a3.34,3.34,0,0,0,5.75,2.53c.39-.4.79-.79,1.19-1.18,5.42-5.44,10.91-10.82,16.22-16.36a5.23,5.23,0,0,1,2.05-1.4h3.46v19.92a11.18,11.18,0,0,0,.06,1.92,3.24,3.24,0,0,0,5,2.26,11.58,11.58,0,0,0,1.78-1.59l19.46-19.57c.49-.49,1-1,1.48-1.43s1.57-1.47,1.72-1.62c1.63-1.55,3.28-3.09,4.92-4.62,1.23-1.15,2.46-2.28,3.69-3.42l17.91-20.16q22-24.77,44-49.52C680.33,149.46,681.33,147.94,680.41,146ZM348.19,118.29a6.84,6.84,0,1,1,6.75-6.9A6.74,6.74,0,0,1,348.19,118.29ZM368.86,135a3.54,3.54,0,0,1-3.65-3.58,3.52,3.52,0,0,1,7,0A3.52,3.52,0,0,1,368.86,135Zm-90.19,94.47a6.9,6.9,0,1,1,6.88-6.87A7,7,0,0,1,278.67,229.47Zm26.67,2.19a3.46,3.46,0,0,1-3.47-3.48,3.51,3.51,0,1,1,7,.08A3.44,3.44,0,0,1,305.34,231.66ZM300,323.93a6.9,6.9,0,0,1-.14-13.79,6.9,6.9,0,0,1,.14,13.79ZM444,194.24a6.92,6.92,0,0,1-6.94-6.79,7,7,0,0,1,6.8-7c3.34,0,6.81,2.94,6.79,5.87C450.6,192.27,447.63,193.93,444,194.24Zm133.91-16.7a6.85,6.85,0,0,1-6.73-7,6.83,6.83,0,1,1,6.73,7ZM509.05,310.09h22.33l-9.7,11.64L509,310.1Zm-1.66-23.76-10.05,13-13.46-13Zm49.76-49.91v-7.8h8Zm28.65,5.22V228.58h12.66C597.73,230.08,589.22,238.9,585.8,241.64Z"/></svg>